PathFileType	4	(X/Y/Z)	C:\Users\WrightLab\Desktop\Jo\P5V210.trc
DataRate	CameraRate	NumFrames	NumMarkers	Units	OrigDataRate	OrigDataStartFrame	OrigNumFrames
100.00	100.00	       34	19	mm	100.00	1	       716
Frame#	Time	Headset_Front			Headset_Back			Headset_Left			Headset_Right			Left_Shoulder			Right_Shoulder			Sternum			C7			Left Elbow			Right Elbow			Left Wrist			Right Wrist			Left ASIS			Right ASIS			S2			Left Knee			Right Knee			Left Ankle			Right Ankle			
		X1	Y1	Z1	X2	Y2	Z2	X3	Y3	Z3	X4	Y4	Z4	X5	Y5	Z5	X6	Y6	Z6	X7	Y7	Z7	X8	Y8	Z8	X9	Y9	Z9	X10	Y10	Z10	X11	Y11	Z11	X12	Y12	Z12	X13	Y13	Z13	X14	Y14	Z14	X15	Y15	Z15	X16	Y16	Z16	X17	Y17	Z17	X18	Y18	Z18	X19	Y19	Z19	

1	0.000																												-558.41223	1159.28784	-1361.69116				-516.99487	1016.71741	-1173.89539				-390.54745	925.96869	-1260.36145				-68.97964	478.65009	-1282.15369	-425.83932	468.54688	-1324.04114							
2	0.010																												-560.66888	1159.22656	-1361.81079				-518.37653	1016.54041	-1174.04639				-391.27921	926.29773	-1259.16516				-70.31546	476.92923	-1289.36682	-427.27252	468.71527	-1324.90393							
3	0.020																												-562.83929	1159.44336	-1362.54797				-520.12213	1016.87683	-1174.97485				-393.29425	926.92682	-1258.64832				-71.09985	477.75732	-1289.79932	-428.54199	468.86984	-1324.94263							
4	0.030																												-564.70374	1159.81970	-1363.16467				-521.93085	1017.22388	-1175.56921				-394.99240	925.01526	-1266.22815				-73.18040	479.31119	-1285.65930	-429.86411	468.14896	-1325.59204							
5	0.040																												-566.34033	1159.90295	-1363.36926				-524.30188	1016.87213	-1175.79028				-396.97464	924.15997	-1267.33325				-76.05618	479.60901	-1287.50452	-432.14215	468.38840	-1326.22644							
6	0.050																												-568.76508	1159.77344	-1362.94104				-525.44910	1016.72595	-1175.67688				-398.85312	925.84576	-1261.69958				-77.46855	476.95737	-1295.62708	-433.99115	468.88742	-1326.17688							
7	0.060																												-571.04138	1160.33826	-1364.44080				-526.03796	1016.51453	-1175.90808				-399.77240	927.33252	-1259.54016				-78.26976	477.11960	-1296.54382	-436.00073	467.81580	-1326.26086							
8	0.070																												-572.36859	1160.33069	-1365.12244				-529.80957	1017.00543	-1176.71631				-400.92630	926.55432	-1260.94788				-81.05804	480.75287	-1288.80896	-436.78976	467.52722	-1326.82739							
9	0.080																												-574.47211	1159.87561	-1363.42969				-531.45764	1017.03986	-1176.84546				-403.32980	924.70313	-1267.63574				-82.48394	479.38931	-1292.32520	-439.23077	467.11087	-1327.34119							
10	0.090																												-576.61133	1159.67285	-1362.70935				-532.47949	1017.20728	-1176.57886				-405.89334	924.73901	-1266.31946				-84.85897	477.61124	-1298.02173	-441.95612	467.21268	-1327.36560							
11	0.100																												-578.38983	1160.10840	-1364.27063				-533.39209	1016.31122	-1177.29797				-406.72864	926.03070	-1265.25513				-85.85535	477.27237	-1300.73352	-444.08447	465.85184	-1327.64954							
12	0.110																												-580.70740	1159.39209	-1362.44678				-534.02655	1015.85339	-1177.06018				-407.56577	925.51556	-1263.67737				-88.40007	479.68961	-1294.58765	-446.07440	466.59937	-1327.64465							
13	0.120																												-581.81866	1159.40454	-1362.78467				-539.56873	1018.32941	-1176.88428				-408.79117	926.27985	-1261.42676				-89.09281	480.11557	-1295.59106	-449.44418	465.70648	-1327.63196							
14	0.130																												-583.71606	1159.78906	-1363.07300				-539.10272	1015.91278	-1176.60291				-410.60513	924.93573	-1263.58118				-91.42012	479.78134	-1296.36658	-450.89517	465.72278	-1327.93311							
15	0.140																												-585.41785	1158.83081	-1361.43958				-539.76984	1015.69025	-1176.63745				-412.26776	924.48468	-1265.34497				-93.20673	478.06512	-1301.94238	-453.90527	464.95135	-1327.32849							
16	0.150																												-587.38379	1158.90771	-1361.79126				-540.59418	1014.82318	-1176.85620				-413.21954	922.53931	-1269.23022				-95.50047	479.12323	-1298.92883	-456.08093	465.28656	-1326.73206							
17	0.160																												-589.11768	1158.16284	-1360.55420				-541.00366	1014.29333	-1176.60083				-414.32822	922.10693	-1267.59741				-96.67408	479.61032	-1297.87903	-458.83768	464.89548	-1326.51184							
18	0.170																												-590.71173	1157.67126	-1359.45178				-541.91516	1013.61560	-1176.24939				-415.03571	921.54315	-1266.96643				-98.03485	479.84052	-1297.90112	-461.36490	465.66446	-1325.96252							
19	0.180																												-591.64093	1157.58789	-1359.71484				-544.39233	1013.50836	-1175.82251				-415.31470	920.88623	-1268.13391				-101.55061	480.56311	-1297.30725	-463.04932	464.96149	-1325.85144							
20	0.190																												-592.97449	1157.47339	-1359.78992				-545.07721	1013.14349	-1175.97949				-415.93179	921.10419	-1268.08911				-102.92264	479.51196	-1302.08984	-464.68039	465.13205	-1324.85046							
21	0.200																												-594.68103	1157.24451	-1358.64270				-545.85394	1012.72131	-1175.98657				-416.10568	920.73108	-1268.82141				-103.24905	478.91037	-1303.92676	-466.81519	464.39301	-1324.92053							
22	0.210																												-596.24207	1157.64648	-1359.37366				-546.98846	1012.15344	-1175.76733				-417.82623	921.34723	-1265.23962				-104.27979	479.92471	-1301.49268	-469.12726	464.69458	-1324.93298							
23	0.220																												-597.18683	1157.21106	-1359.00525				-547.52649	1012.02350	-1175.65222				-418.45847	920.48511	-1267.98767				-104.41786	479.86627	-1302.29639	-471.65900	464.49765	-1324.17883							
24	0.230																												-597.95959	1157.21765	-1359.68286				-547.87903	1011.08008	-1175.34875	-64.71893	968.05951	-1253.36963	-419.57669	920.24274	-1268.47058				-105.10635	480.77591	-1300.23315	-472.81915	463.71786	-1324.53369							
25	0.240																												-598.97650	1156.41650	-1357.93628				-548.70923	1011.61407	-1174.75659	-140.69629	908.40265	-1297.93262	-420.58911	919.39880	-1269.69714				-105.98172	481.57410	-1297.13977	-474.39975	463.92584	-1324.21155							
26	0.250																												-600.07294	1156.44592	-1357.45325				-550.22577	1010.65784	-1174.83545	-141.56876	908.55353	-1296.59265	-421.45963	919.58881	-1270.01086				-105.96087	481.50629	-1297.00769	-476.89764	464.14255	-1324.34399							
27	0.260																												-600.56360	1156.33191	-1357.71948				-550.40656	1010.46869	-1174.20386	-141.76520	908.33746	-1297.66724	-421.84302	919.12079	-1271.68445				-105.90927	481.57025	-1296.71387	-477.56760	464.06076	-1324.17249							
28	0.270																												-601.22937	1156.16650	-1357.30835				-550.26544	1009.38104	-1174.20435	-141.97096	908.07269	-1298.78857	-422.10443	918.79413	-1272.82410				-105.85477	481.66373	-1296.40735	-478.96799	463.78494	-1324.96924							
29	0.280																												-602.03021	1155.80212	-1356.16479				-550.28326	1009.32086	-1174.20093	-142.13408	907.91711	-1299.68323	-422.18414	918.69049	-1273.17090				-105.29042	480.95410	-1297.78857	-480.19095	463.30832	-1325.38184							
30	0.290																												-602.52502	1154.83032	-1353.88354				-550.44800	1009.02789	-1173.92542	-142.95699	908.66187	-1298.96973	-422.22931	918.63196	-1273.36743				-104.67592	480.15521	-1299.59998	-480.66373	462.27878	-1326.52795							
31	0.300																												-602.74036	1154.66919	-1353.74451				-551.29938	1008.56769	-1173.61169	-143.51807	909.46436	-1298.06799	-422.22702	918.63470	-1273.35742				-104.16779	480.32385	-1300.89063	-481.33667	462.30643	-1326.89246							
32	0.310																												-602.95660	1154.51355	-1353.78528				-551.35980	1008.27032	-1173.60706	-143.60382	909.33789	-1298.53284	-422.18890	918.65460	-1273.18616				-104.09756	480.62119	-1300.51953	-481.34799	462.10507	-1327.57483							
33	0.320																												-603.15204	1154.33545	-1353.74329				-551.41345	1007.97174	-1173.70422	-143.83537	909.08295	-1299.79785	-422.11957	918.74384	-1272.88440				-103.98426	481.05658	-1299.91406	-482.52774	462.23657	-1328.60657							
34	0.330																												-603.31671	1154.14258	-1353.72241				-551.21381	1007.12970	-1173.39209	-144.07588	908.85919	-1301.11609	-421.65485	918.03979	-1274.34131				-103.34356	481.38049	-1300.98499	-482.58774	461.91702	-1328.91809							
